<svg width="63" height="429" viewBox="0 0 63 429" fill="none" xmlns="http://www.w3.org/2000/svg">
<path d="M0.77063 0C0.703963 7.959 0.64063 15.918 0.58063 23.877C0.334059 56.5847 0.143781 89.2924 0.00979787 122C0.131287 139.148 14.2107 151.802 28.0208 159.423C48.0477 169.877 60.8311 191.947 60.2706 214.5C60.2706 214.643 60.2703 214.786 60.2696 214.928C61.1604 239.779 45.8512 263.649 22.7956 273.067C10.5217 278.542 -0.160631 290.437 0.00187653 304.55C0.136241 337.908 0.329159 371.265 0.58063 404.623C0.64063 412.582 0.703963 420.541 0.77063 428.5C0.837297 420.541 0.90063 412.582 0.96063 404.623C1.2121 371.265 1.40502 337.908 1.53938 304.55C1.48007 291.232 11.6853 279.93 23.5393 274.711C47.1407 265.308 63.2637 240.339 62.2696 214.938C62.2703 214.792 62.2706 214.646 62.2706 214.5C62.8796 191.345 49.5229 168.409 28.8952 157.81C15.3191 150.423 1.7275 138.161 1.53146 122C1.39748 89.2924 1.2072 56.5847 0.96063 23.877C0.90063 15.918 0.837297 7.959 0.77063 0Z" fill="url(#paint0_linear_0_250)"/>
<defs>
<linearGradient id="paint0_linear_0_250" x1="48.7706" y1="214" x2="-22.2294" y2="214" gradientUnits="userSpaceOnUse">
<stop stop-color="#9B9187"/>
<stop offset="1" stop-color="#121212"/>
</linearGradient>
</defs>
</svg>
