<svg width="352" height="52" viewBox="0 0 352 52" fill="none" xmlns="http://www.w3.org/2000/svg">
<path d="M0 51.0215C6.50392 51.0882 13.0078 51.1515 19.5118 51.2115C44.6885 51.4437 69.8653 51.6261 95.042 51.7584C112.361 51.5641 124.787 37.4085 133.666 24.3258C142.79 10.1583 159.404 1.6869 176.205 2.02148C176.361 2.02148 176.516 2.02198 176.671 2.02298C195.584 1.50351 214.084 12.0958 222.379 29.2231C228.561 41.0991 240.189 51.9164 254.412 51.7716C280.438 51.6383 306.463 51.4516 332.488 51.2115C338.992 51.1515 345.496 51.0882 352 51.0215C345.496 50.9548 338.992 50.8915 332.488 50.8315C306.463 50.5914 280.438 50.4047 254.412 50.2713C240.993 50.287 229.93 39.9302 223.999 28.3751C215.642 10.6922 196.103 -0.579498 176.683 0.0230179C176.525 0.0219955 176.365 0.0214844 176.205 0.0214882C158.861 -0.351067 141.444 8.58411 132.115 23.2978C123.439 36.2758 111.372 49.9846 95.042 50.2845C69.8653 50.4169 44.6885 50.5992 19.5118 50.8315C13.0078 50.8915 6.50392 50.9548 0 51.0215Z" fill="url(#paint0_linear_0_215)"/>
<defs>
<linearGradient id="paint0_linear_0_215" x1="175.795" y1="11.3521" x2="175.795" y2="70.0297" gradientUnits="userSpaceOnUse">
<stop stop-color="#9B9187"/>
<stop offset="1" stop-color="#121212"/>
</linearGradient>
</defs>
</svg>
